# generated from PmQm by Jehee Lee
:FULLY-SPECIFIED
:DEGREES
409
root 66.35846501 38.40860858 36.43107531 -166.2352632 -74.62572108 167.2412742
RightUpLeg -3.619675479 -3.0424031 -6.621272126
RightLeg 49.21739851 -3.003466826 -5.678879952
RightFoot 10.43474354 25.25567143 -5.12101742
RightToes 2.32829e-010 -1.59028e-015 9.93923e-017
Spine -8.615737823 2.739157942 2.825787768
Spine1 13.05120699 4.637527439 -9.763503017
HEad -10.24917151 -4.023258346 2.809232198
LeftShoulder1 9.93923e-017 0 1.22299e-017
LeftArm -9.244655508 44.94620471 -71.2246392
LeftForeArm -7.754399472 -4.268921786 -6.17987125
LeftHand 0.992905 7.03592 -5.03757
RightShoulder 1.98785e-016 -4.96962e-017 1.55301e-017
RightArm 26.74857932 -33.49647376 89.80611261
RightForeArm -50.5587284 20.74354785 -16.03337121
RightHand 1.09086 -10.2491 -4.27313
LeftUpLeg -26.05547193 -2.694939137 -2.790870728
LeftLeg 18.59943867 0 0
LeftFoot -0.5261207788 -3.278227987 -2.349755582
LeftToes 8.82235e-011 9.04645e-011 1.87288e-011
410
root 65.05633797 38.53700323 36.01926069 -164.1012678 -73.61480592 164.9243088
RightUpLeg -8.586140838 -1.191940494 -7.212009188
RightLeg 56.8965031 -4.081008208 -11.02071377
RightFoot 15.30451512 22.42596795 -0.1463829485
RightToes 2.32829e-010 -1.59028e-015 9.93923e-017
Spine -7.156561866 2.192774118 -0.3495186524
Spine1 12.58159011 3.779607961 -8.859403652
HEad -10.95362685 -3.058958446 2.324656645
LeftShoulder1 9.93923e-017 0 1.22299e-017
LeftArm -6.599681884 39.93016714 -73.60455984
LeftForeArm -10.45827374 -5.325537262 -6.581468644
LeftHand 0.970123 6.82072 -4.29005
RightShoulder 1.98785e-016 -4.96962e-017 1.55301e-017
RightArm 20.68931634 -36.20283342 90.30526425
RightForeArm -43.36041459 19.73561349 -9.223474288
RightHand 1.03939 -10.2002 -2.94224
LeftUpLeg -24.44764209 -2.667075362 -2.446095831
LeftLeg 22.12856424 0 0
LeftFoot -3.118963172 -3.895650714 -2.664449637
LeftToes 8.82235e-011 9.04645e-011 1.87288e-011
411
root 63.63707222 38.80596671 35.58596861 -164.9399109 -73.26298828 165.6092426
RightUpLeg -12.78098463 -0.2189767842 -6.562007836
RightLeg 61.16960175 -2.938477982 -13.58839307
RightFoot 13.66274997 19.2396183 2.358674822
RightToes 2.32829e-010 -1.59028e-015 9.93923e-017
Spine -6.580303668 1.426715935 -2.500291036
Spine1 12.02732856 2.53177302 -7.099113957
HEad -10.67315642 -1.707370066 1.845580681
LeftShoulder1 9.93923e-017 0 1.22299e-017
LeftArm -3.809392417 36.06141893 -75.4896582
LeftForeArm -14.22375103 -8.752497789 -5.514277912
LeftHand 0.942205 6.57551 -3.70458
RightShoulder 1.98785e-016 -4.96962e-017 1.55301e-017
RightArm 18.87628383 -39.36248856 90.13882366
RightForeArm -38.50217185 18.41094486 -4.684044826
RightHand 1.03827 -10.3208 -2.49664
LeftUpLeg -21.66417142 -2.35034596 -1.653433542
LeftLeg 23.21646882 0 0
LeftFoot -4.709818691 -4.850195833 -3.278482919
LeftToes 8.82235e-011 9.04645e-011 1.87288e-011
412
root 62.17606526 39.10022876 35.13935297 -166.9661264 -73.88026688 167.5330722
RightUpLeg -16.28363912 -0.3245792595 -5.127168132
RightLeg 62.15028059 -0.4156136647 -12.16556772
RightFoot 9.223122615 16.4936076 2.570828678
RightToes 2.32829e-010 -1.59028e-015 9.93923e-017
Spine -6.315187585 0.1881540979 -4.080899583
Spine1 11.21637537 0.7403442811 -4.786584006
HEad -9.704885422 -0.1793111848 1.644131506
LeftShoulder1 9.93923e-017 0 1.22299e-017
LeftArm 3.522023335 33.1756349 -76.94828246
LeftForeArm -23.2206879 -14.72302294 -1.994601734
LeftHand 0.92793 6.45217 -3.57146
RightShoulder 1.98785e-016 -4.96962e-017 1.55301e-017
RightArm 20.91748875 -43.21982022 89.5968458
RightForeArm -37.60342559 17.83731527 -3.186553323
RightHand 1.04716 -10.4116 -2.45404
LeftUpLeg -18.38787786 -1.801708794 -0.6058626376
LeftLeg 22.93618887 0 0
LeftFoot -6.09092037 -6.751881088 -3.788881105
LeftToes 8.82235e-011 9.04645e-011 1.87288e-011
413
root 60.75962943 39.3243055 34.63598547 -169.2523413 -74.43121601 169.7186806
RightUpLeg -19.4701408 -0.5829032491 -3.623889239
RightLeg 60.57790884 2.083169354 -9.13423523
RightFoot 5.449241758 13.93841944 2.462515184
RightToes 2.32829e-010 -1.59028e-015 9.93923e-017
Spine -6.224798102 -1.022952818 -5.439737597
Spine1 10.74555347 -0.9501929401 -2.762801687
HEad -8.939168264 1.155813541 1.581018609
LeftShoulder1 9.93923e-017 0 1.22299e-017
LeftArm 16.56862281 30.40327029 -78.14285115
LeftForeArm -38.25626847 -20.89606089 4.907431017
LeftHand 0.925915 6.44464 -3.3863
RightShoulder 1.98785e-016 -4.96962e-017 1.55301e-017
RightArm 22.97534893 -47.46687037 88.38872627
RightForeArm -38.47724037 17.9757794 -3.561399452
RightHand 1.02044 -10.2376 -2.25741
LeftUpLeg -15.1668098 -0.9108491184 0.5265691862
LeftLeg 22.2704202 0 0
LeftFoot -7.230834351 -8.870817054 -4.201737827
LeftToes 8.82235e-011 9.04645e-011 1.87288e-011
414
root 59.37209206 39.45480002 34.08808799 -171.131641 -74.51622852 171.485157
RightUpLeg -22.37056594 -0.7434439202 -2.377514588
RightLeg 56.92758685 3.848861593 -6.585133269
RightFoot 2.376060166 11.48653998 2.995129915
RightToes 2.32829e-010 -1.59028e-015 9.93923e-017
Spine -6.476834001 -1.996266867 -6.638626845
Spine1 10.81716567 -2.272585215 -1.176215133
HEad -8.783275448 2.163025137 1.510925589
LeftShoulder1 9.93923e-017 0 1.22299e-017
LeftArm 28.24911652 27.30387139 -78.72481338
LeftForeArm -50.97349422 -24.47461644 12.78925711
LeftHand 0.913312 6.34459 -3.16304
RightShoulder 1.98785e-016 -4.96962e-017 1.55301e-017
RightArm 24.95092971 -51.58391205 86.49370238
RightForeArm -40.64563351 18.51131628 -5.096103606
RightHand 0.9969 -10.0451 -2.20697
LeftUpLeg -12.03171126 0.2003288612 1.599117367
LeftLeg 21.47106461 0 0
LeftFoot -8.083334649 -10.69953602 -4.515528293
LeftToes 8.82235e-011 9.04645e-011 1.87288e-011
415
root 57.99096732 39.52211482 33.54821739 -172.605275 -74.68935676 172.8564994
RightUpLeg -24.81826555 -1.428270998 -1.313894476
RightLeg 51.34194604 5.016228132 -4.747478016
RightFoot -0.197954947 9.242970978 3.875025993
RightToes 2.32829e-010 -1.59028e-015 9.93923e-017
Spine -6.788023987 -2.989844041 -7.723762149
Spine1 10.93477683 -3.545371936 0.5403474714
HEad -8.843318695 2.986940174 1.472876773
LeftShoulder1 9.93923e-017 0 1.22299e-017
LeftArm 31.88723707 23.92340025 -78.45912758
LeftForeArm -53.63688285 -26.43298621 17.1456967
LeftHand 0.89027 6.12658 -3.34082
RightShoulder 1.98785e-016 -4.96962e-017 1.55301e-017
RightArm 27.40953019 -55.24304649 84.25524685
RightForeArm -43.19013309 19.08278336 -7.056815929
RightHand 1.02418 -10.1508 -2.66158
LeftUpLeg -8.816071915 1.054029397 2.583358181
LeftLeg 20.25717691 0 0
LeftFoot -8.960497543 -12.26077561 -4.733413204
LeftToes 8.82235e-011 9.04645e-011 1.87288e-011
416
root 56.63878066 39.52645185 33.03558226 -173.7741414 -75.09672019 173.9621368
RightUpLeg -26.72947299 -2.734770561 -0.4187851718
RightLeg 43.94637357 5.868511158 -3.368445342
RightFoot -1.181560096 7.296323403 4.477791575
RightToes 2.32829e-010 -1.59028e-015 9.93923e-017
Spine -6.845519161 -4.022498645 -8.720262644
Spine1 10.81351879 -4.81636505 2.402248215
HEad -8.700458735 3.742787612 1.490087455
LeftShoulder1 9.93923e-017 0 1.22299e-017
LeftArm 30.01286693 20.50987836 -77.73300493
LeftForeArm -49.90317989 -28.37589464 18.07386607
LeftHand 0.874162 5.96507 -3.53657
RightShoulder 1.98785e-016 -4.96962e-017 1.55301e-017
RightArm 28.9357223 -58.30468862 81.8964138
RightForeArm -44.13277519 19.34946355 -8.402974779
RightHand 1.06596 -10.3388 -3.23031
LeftUpLeg -5.769018751 1.277274485 3.391821378
LeftLeg 19.01825077 0 0
LeftFoot -10.2013757 -13.1921396 -4.764483684
LeftToes 8.82235e-011 9.04645e-011 1.87288e-011
417
root 55.31002279 39.4131 32.55010794 -174.0444904 -75.28745187 174.2398454
RightUpLeg -28.07529802 -3.793587358 0.2099436729
RightLeg 35.01474044 6.248318526 -2.546770997
RightFoot -0.5887518116 5.602994136 4.870806562
RightToes 2.32829e-010 -1.59028e-015 9.93923e-017
Spine -6.99225 -4.80394 -9.49489
Spine1 10.8103 -5.72047 3.70045
HEad -8.50494 4.3499 1.50706
LeftShoulder1 9.93923e-017 0 1.22299e-017
LeftArm 29.324 17.2202 -77.0933
LeftForeArm -48.1612 -29.8036 18.6995
LeftHand 0.872868 5.99207 -3.07255
RightShoulder 1.98785e-016 -4.96962e-017 1.55301e-017
RightArm 28.776 -60.6454 79.5323
RightForeArm -43.3166 19.3197 -8.73957
RightHand 1.06334 -10.2749 -3.3763
LeftUpLeg -3.350720815 0.9291073903 3.855719815
LeftLeg 18.82848798 0 0
LeftFoot -12.03281156 -13.02200386 -4.219819125
LeftToes 8.82235e-011 9.04645e-011 1.87288e-011
